# xmcd
#
# Track frame offsets: 
#        150
#        11775
#        31630
#        45680
#        58005
#        76120
#        86777
#        100342
#        112182
#        125145
#        152265
#        175970
#        200717
#        211472
#
# Disc length: 3039 seconds
#
# Revision: 1
# Processed by: cddbd v1.5.2PL0 Copyright (c) Steve Scherf et al.
# Submitted via: ExactAudioCopy v0.99pb4
#
DISCID=bd0bdd0e
DTITLE=Albert Järvinen - Ride On
DYEAR=1900
DGENRE=Blues
TTITLE0=Teenage Nervous Breakdown
TTITLE1=Hot Matter
TTITLE2=Sister Sue
TTITLE3=Let's Have A Ball (In The Fat Man's Valley)
TTITLE4=Freezing - Like Crying - Playing
TTITLE5=Don't Be Cruel
TTITLE6=The Train Kept A-Rollin'
TTITLE7=Goin' To Louisiana
TTITLE8=Patchy Moss
TTITLE9=Whorehouse Queen
TTITLE10=Specii Quattour
TTITLE11=Cry Before I Go
TTITLE12=Buzz The Jerk
TTITLE13=Mama Keep Your Big Mouth Shut
EXTD=
EXTT0=
EXTT1=
EXTT2=
EXTT3=
EXTT4=
EXTT5=
EXTT6=
EXTT7=
EXTT8=
EXTT9=
EXTT10=
EXTT11=
EXTT12=
EXTT13=
PLAYORDER=
